<svg xmlns="http://www.w3.org/2000/svg" xmlns:xlink="http://www.w3.org/1999/xlink" version="1.1" width="612pt" height="792pt" viewBox="0 0 612 792">
<defs>
<clipPath id="clip_0">
<path transform="matrix(.24,0,0,.24,0,0)" d="M0 0H2550V3300H0Z" fill-rule="evenodd"/>
</clipPath>
<clipPath id="clip_1">
<path transform="matrix(.24,0,0,.24,0,0)" d="M0 0H2550V3300H0Z" fill-rule="evenodd"/>
</clipPath>
<clipPath id="clip_2">
<path transform="matrix(.24,0,0,.24,0,0)" d="M0 0H2550V3300H0Z" fill-rule="evenodd"/>
</clipPath>
</defs>
<g clip-path="url(#clip_0)">
<path transform="matrix(.75,0,0,.75,0,0)" d="M0 0H816V1056H0Z" fill="#ffffff"/>
</g>
<g clip-path="url(#clip_1)">
<path transform="matrix(.75,0,0,.75,0,0)" d="M0 0H816V1056H0Z" fill="#faf7f5"/>
</g>
<g clip-path="url(#clip_2)">
<text xml:space="preserve" transform="matrix(.7061259 0 0 .7061259 72.705799 186.5882)" font-size="12" font-family="Gotham"><tspan y="14" x="0 13.284088 20.388138 28.356202 31.956223 39.924287 47.028337 54.072389 61.176439 64.33246 72.08452 80.05258 87.15663 92.01666 95.616687 103.58475 110.53279 116.508838 122.48488 125.6409 133.39296 140.78502 147.73307 152.5811 159.68515 163.28517 170.23322 178.20128 185.95334 193.3454 198.19344 201.79346 208.7415 215.59355 222.4456 229.54965 235.5257 241.50174 244.65776 252.62583 255.78185 258.93788 262.09388 266.9419">Web developer passionate about accessibility</tspan></text>
<text xml:space="preserve" transform="matrix(.7061259 0 0 .7061259 72.705799 186.5882)" font-size="12" font-family="Gotham"><tspan y="33" x="0 6.948044 14.340103 22.308167 25.908188 30.768219 37.87227 43.848314 51.816377 59.568437 66.960498 72.93654 76.09256 83.13661 90.24066 97.63272 104.73677 110.712818 116.68886 119.61688 123.2169 136.50099 139.65702 144.50505 151.89711 155.49713 162.44518 166.0452 174.01326 180.9613 187.81336 194.6414 202.60947 207.4695 215.22156 222.61362 230.00568 237.97374 241.57376 244.72978">and responsiveness. With a background in</tspan></text>
<text xml:space="preserve" transform="matrix(.7061259 0 0 .7061259 72.705799 186.5882)" font-size="12" font-family="Gotham"><tspan y="52" x="0 4.860031 11.964081 17.940125 25.044175 31.992218 36.85225 43.7043 51.09636 54.69638 61.644426 69.03648 77.00455 80.60457 88.57263 93.43266 100.53671 110.86879 114.02481 121.41687 129.38494 132.32495 135.92498 139.081 145.05704 148.65706 155.6051 163.57317 170.67722 178.64528 183.49332 187.09334 194.04138 198.88942 202.48944 213.86553 220.81357 228.20563 235.15367 243.12174 246.27776 253.66982">research and brewing, is adept at managing</tspan></text>
<text xml:space="preserve" transform="matrix(.7061259 0 0 .7061259 72.705799 186.5882)" font-size="12" font-family="Gotham"><tspan y="71" x="0 7.9680635 12.8280949 15.984116 23.736176 28.596207 31.752228 36.600267 39.756288 46.860338 52.83638 56.4364 63.384447 70.776508 78.74457 82.34459 90.31265 95.17268 102.92474 110.89281 114.04883 121.15288 132.52896 136.12899 142.10503 149.85709 153.0131 160.05716 163.21318 170.60524 178.5733">priorities and problem solving.</tspan></text>
<text xml:space="preserve" transform="matrix(.7061259 0 0 .7061259 72.705799 186.5882)" font-size="12" font-family="Gotham"><tspan y="71" x="181.51563 185.11565">  </tspan></text>
<text xml:space="preserve" transform="matrix(.7061259 0 0 .7061259 72.705799 186.5882)" font-size="12" font-family="Gotham"><tspan y="71" x="188.71875 196.7588 203.64685 210.4989 213.65493 218.50296 225.60701 233.57508 237.1751 242.02313">Excited to</tspan></text>
<text xml:space="preserve" transform="matrix(.7061259 0 0 .7061259 72.705799 186.5882)" font-size="12" font-family="Gotham"><tspan y="90" x="0 7.9680635 15.360123 20.220154 26.196198 33.588258 40.692308 44.292329 51.24037 54.840394 61.692445 68.64049 73.50052 80.60457 87.70862 92.56865 96.16867 103.02072 110.77278 113.9288 117.08482 124.03287 132.00093 139.75299 144.61302 151.56107 156.4091 159.56513 166.95719 174.92525 178.52527 188.85735 192.01337 196.8614 204.25347 207.85349 215.60555 220.45359 227.84564 234.94969 239.80973 245.78577 249.38579 254.23383">pursue a career collaborating with others to</tspan></text>
<text xml:space="preserve" transform="matrix(.7061259 0 0 .7061259 72.705799 186.5882)" font-size="12" font-family="Gotham"><tspan y="109" x="0 6.852051 11.712082 18.816132 25.764176 30.612214 37.716264 41.316286 48.708345 54.684389 61.788438 66.64847 71.54451 78.39656 85.50061 92.89267 97.74071 102.60074 105.75676 112.60881 116.20883 126.54091 133.64496 141.61302 147.58907 150.74509 155.59313 162.69718 168.67322">create user-centric websites.</tspan></text>
<text xml:space="preserve" transform="matrix(.70555558 0 0 .70555558 73.56197 164.69292)" font-size="16" font-family="Aileron" font-weight="bold"><tspan y="17" x="0 12.928027 27.360053 44.912088 62.464124 76.48015 90.144168">SUMMARY</tspan></text>
<text fill="#393939" xml:space="preserve" transform="matrix(.50533398 0 0 .50533398 86.558788 40.12519)" font-size="191.9" font-family="TANMERINGUE"><tspan y="197" x="0">K</tspan></text>
<path transform="matrix(.7499996,-.00079787147,.00079787147,.7499996,73.53977,153.96051)" stroke-width="2" stroke-linecap="butt" stroke-miterlimit="4" stroke-linejoin="miter" fill="none" stroke="#000000" d="M0 1H622.1182"/>
<text xml:space="preserve" transform="matrix(.70555558 0 0 .70555558 166.27523 106.52571)" font-size="16.93" font-family="TenorSans"><tspan y="17" x="0 11.202903 22.050444 27.889149 33.727857 40.954137 52.54623 59.907888 70.06164 80.28308 90.36915 97.30777 116.19315 126.92224 138.15898 145.0976 159.05873 169.78781 179.4339 190.16298 196.00168 207.47531 218.71205 229.44113">Full-Stack Web Developer</tspan></text>
<text xml:space="preserve" transform="matrix(.70555558 0 0 .70555558 167.24117 59.704038)" font-size="21.2" font-family="TenorSans"><tspan y="21" x="0 22.103413 41.62194 61.14047 80.659">KELLY</tspan></text>
<text xml:space="preserve" transform="matrix(.70555558 0 0 .70555558 167.24117 59.704038)" font-size="21.2" font-family="TenorSans"><tspan y="50" x="0 20.005848 42.850824 67.94168 88.8374">SCOTT</tspan></text>
<text xml:space="preserve" transform="matrix(.75 0 0 .75 382.0859 83.046169)" font-size="12.45" font-family="Gotham"><tspan y="13" x="109.703128 117.750247 126.095859 134.14298 137.87425 142.94879 146.68007 154.3043 163.19718 170.6473 174.37857 179.45311 183.18439 190.59719 198.6443 203.09696">949 - 302 - 7615</tspan></text>
<text xml:space="preserve" transform="matrix(.75 0 0 .75 382.0859 83.046169)" font-size="12.45" font-family="Gotham"><tspan y="31" x="74.5625 81.63948 88.9901 96.19145 103.39281 109.586719 116.68857 124.72325 129.74803 134.77281 146.96164 155.2202 167.01103 174.21239 177.48348 180.75457 183.78934 190.89119 198.92588">kyaascott@gmail.com</tspan></text>
<text xml:space="preserve" transform="matrix(.75 0 0 .75 382.0859 83.046169)" font-size="12.45" font-family="Gotham"><tspan y="49" x="73.21875 81.47731 84.7484 89.77318 97.43472 105.09627 113.35483 116.3896 123.491458 131.52614 143.31697 149.63527 152.90636 156.17745 163.3788 171.63736 178.98798 185.18189 196.97272 204.17407 207.44516">github.com/lladysmall</tspan></text>
<text xml:space="preserve" transform="matrix(.70526507 0 0 .70526507 71.870288 692.8415)" font-size="12" font-family="Aileron" font-weight="bold"><tspan y="12" x="0 9.084048 18.132102 26.72416 39.768247 48.360307">BREWER</tspan></text>
<text xml:space="preserve" transform="matrix(.70526507 0 0 .70526507 73.48911 577.1504)" font-size="16" font-family="Aileron" font-weight="bold"><tspan y="17" x="0 18.992039 34.43206 48.09608 62.224107 68.52811 81.58412 95.60014 108.76816 121.82417 135.48819 143.3602 156.41622 171.77623 186.46425">WORK EXPERIENCE</tspan></text>
<text xml:space="preserve" transform="matrix(.70526507 0 0 .70526507 231.28717 600.0865)" font-size="12" font-family="Aileron"><tspan y="12" x="0 7.7400505 15.5641 23.66415 33.80421 41.112257 45.79228 52.776319 56.088346 64.33239 69.01241 76.32046 86.46052 90.03654 97.87258 105.97263 109.28466 118.39272 126.14477 129.50478 132.8168 136.82483 140.13686 149.36492 156.45696 163.345 166.92102 173.14907 176.50908 179.8211 188.92917">Sudwerk Brewing Co. - Davis, CA</tspan></text>
<text xml:space="preserve" transform="matrix(.70526507 0 0 .70526507 461.27897 598.1258)" font-size="12" font-family="Aileron"><tspan y="15" x="0 7.248046 15.072096 22.908139 30.216183 33.52821 41.208265 48.888319 56.56837 64.24842 67.56045 71.568477 74.8805 82.77656 87.45658 94.764629 100.99267 108.30071 116.13676">June 2023 - Present</tspan></text>
<text xml:space="preserve" transform="matrix(.70526507 0 0 .70526507 75.11576 600.0865)" font-size="12" font-family="Aileron" font-weight="bold"><tspan y="12" x="0 8.676059 17.98812 27.804177 37.200239 46.5123 56.556356 61.260385 71.58045 81.624507 85.15252 94.46458 102.960628 111.45667 116.1607 124.656749 133.33281 142.64487 152.96494">PACKAGING ASSISTANT</tspan></text>
<text xml:space="preserve" transform="matrix(.70526507 0 0 .70526507 75.11576 600.0865)" font-size="12" font-family="Aileron" font-weight="bold"><tspan y="12" x="161.65625"> </tspan></text>
<path transform="matrix(.70526507,0,0,.70526507,73.90724,611.86239)" d="M9 11C8.999999 11.265215 8.949252 11.520336 8.847758 11.765364 8.7462639 12.010392 8.601748 12.226675 8.414212 12.414212 8.226675 12.6017479 8.010393 12.746263 7.765365 12.847757 7.5203378 12.949251 7.265216 12.999999 7 13 6.734783 12.999999 6.4796607 12.949251 6.234632 12.847757 5.989604 12.746263 5.773322 12.6017479 5.585786 12.414212 5.398249 12.226675 5.253734 12.010393 5.1522405 11.765365 5.0507466 11.520336 4.9999997 11.265215 5 11 4.9999997 10.734783 5.0507466 10.479661 5.1522405 10.2346329 5.253734 9.989604 5.398249 9.773321 5.585786 9.585786 5.773322 9.398249 5.989604 9.253734 6.234632 9.15224 6.4796607 9.050747 6.734783 9 7 9 7.265216 9 7.5203378 9.050747 7.765365 9.15224 8.010393 9.253734 8.226675 9.398249 8.414212 9.585786 8.601748 9.773321 8.7462639 9.989604 8.847758 10.2346329 8.949252 10.479661 8.999999 10.734783 9 11Z"/>
<text xml:space="preserve" transform="matrix(.70526507 0 0 .70526507 73.90724 611.86239)" font-size="12" font-family="Gotham"><tspan y="15" x="20.390625 30.806702 37.754747 45.146806 52.09485 60.062913 67.16696 70.76698 75.61502 82.563068 88.53911 95.36716 101.3432 104.94322 115.2753 118.43132 123.27936 130.67142 134.27144 141.12349 148.87555 160.25164 168.2197 175.32375 180.17179 183.3278 190.71987 198.68793 202.28795 210.25601 215.11605 218.27207 226.02413 230.88416 234.04018 238.88822 242.04424 249.14829 255.12433 258.72438 265.67243 268.82844 276.5805 283.97257 291.94065 297.9167 301.07273 309.0408 316.14488 319.7449 324.59294 331.985 339.08903 342.68907 350.65715 355.51719 363.26927 371.23735 378.6294 385.48146 390.3295 393.4855 401.23759 408.62965 412.22966 417.07768 424.18174 431.1298 442.5059 446.10594 450.95396 458.70603 462.30607 467.15409 472.01414 478.9622 486.35426 492.3303 496.73435 503.8384 508.69847 512.29849 519.2465 526.63858 534.60659 538.2066 546.1747 553.12277 559.9748 566.80288 573.7509 581.719 588.82308 592.4231 600.3912 605.2512 613.0033 620.9714 628.36349 635.2155 640.06356 643.6636 650.61166 658.0037">Manage tasks with competing priorities alongside the production team to transfer and package product and</tspan></text>
<text xml:space="preserve" transform="matrix(.70526507 0 0 .70526507 73.90724 611.86239)" font-size="12" font-family="Gotham"><tspan y="36" x="20.390625 27.242676 30.398697 37.502748 44.45079 51.84285 55.44287 62.27092 69.37497 77.34303 83.31908">clean kegs.</tspan></text>
<text xml:space="preserve" transform="matrix(.70526507 0 0 .70526507 229.30339 646.45278)" font-size="12" font-family="Aileron"><tspan y="12" x="0 8.904052 16.740096 20.316113 27.204159 34.512205 39.192228 45.42027 48.99629 53.472318 60.348356 63.66038 71.41242 75.61245 78.92448 88.03254 95.12458 98.8086 102.38462 106.58465 114.33669 119.016719 126.85276 130.42877 137.52082 140.88083 144.19286 153.42092 160.51296 167.401 170.97702">University of California, Davis</tspan></text>
<text xml:space="preserve" transform="matrix(.70526507 0 0 .70526507 229.30339 646.45278)" font-size="12" font-family="Aileron"><tspan y="12" x="177.21875"> </tspan></text>
<text xml:space="preserve" transform="matrix(.70526507 0 0 .70526507 430.25386 644.1371)" font-size="12" font-family="Aileron"><tspan y="15" x="0 7.524047 14.83209 22.884137 27.56416 35.38821 42.48025 47.160276 54.036314 57.34834 65.02839 72.70844 80.3885 88.06855 91.38058 95.3886 98.70063 105.94868 113.77273 121.60877 128.91681 132.22884 139.90889 147.58895 155.269">February 2018 - June 2023</tspan></text>
<text xml:space="preserve" transform="matrix(.70526507 0 0 .70526507 73.131969 646.45278)" font-size="12" font-family="Aileron" font-weight="bold"><tspan y="12" x="0 8.496051 17.17211 26.484169 34.800214 43.116258 46.644277 55.69233 64.284389 72.78043 81.37249 90.68455 99.7326 109.54865 119.77271 123.30073 132.6128 141.10884 149.60489 159.98496 169.80101 174.50504 183.8171 192.49315">STAFF RESEARCH ASSOCIATE</tspan></text>
<path transform="matrix(.70526507,0,0,.70526507,73.13121,658.2287)" d="M9 11C8.999999 11.265215 8.949252 11.520336 8.847758 11.765364 8.7462639 12.010392 8.601748 12.226675 8.414212 12.414212 8.226675 12.6017479 8.010393 12.746263 7.765365 12.847757 7.5203378 12.949251 7.265216 12.999999 7 13 6.734783 12.999999 6.4796607 12.949251 6.234632 12.847757 5.989604 12.746263 5.773322 12.6017479 5.585786 12.414212 5.398249 12.226675 5.253734 12.010393 5.1522405 11.765365 5.0507466 11.520336 4.9999997 11.265215 5 11 4.9999997 10.734783 5.0507466 10.479661 5.1522405 10.2346329 5.253734 9.989604 5.398249 9.773321 5.585786 9.585786 5.773322 9.398249 5.989604 9.253734 6.234632 9.15224 6.4796607 9.050747 6.734783 9 7 9 7.265216 9 7.5203378 9.050747 7.765365 9.15224 8.010393 9.253734 8.226675 9.398249 8.414212 9.585786 8.601748 9.773321 8.7462639 9.989604 8.847758 10.2346329 8.949252 10.479661 8.999999 10.734783 9 11Z"/>
<text xml:space="preserve" transform="matrix(.70526507 0 0 .70526507 73.13121 658.2287)" font-size="12" font-family="Gotham"><tspan y="15" x="20.390625 30.806702 37.754747 40.910768 48.302827 53.150865 60.098909 63.25493 70.64699 77.75104 85.7191 89.31912 96.267169 99.86719 104.72722 111.83127 117.80731 124.91136 131.8594 136.71944 143.57149 150.96355 154.56357 158.9676 165.91565 172.7677 175.92372 179.07975 182.23577 187.0838 194.17586 197.77588 208.10796 215.50002 218.65604 221.81206 228.9161 232.51613 237.36417 244.46822 251.41626 258.2683 265.66038 268.8164 276.20848 284.1765 287.77656 294.6286 297.7846 304.73268 310.7087 316.68476 323.78883 329.76487 332.7049">Maintained a research facility while teaching classes, </tspan></text>
<text xml:space="preserve" transform="matrix(.70526507 0 0 .70526507 73.13121 658.2287)" font-size="12" font-family="Gotham"><tspan y="15" x="336.3125 343.41658 350.80863 356.78468 364.17674 369.03675 372.19276 379.5848 387.55287 391.1529 397.12895 404.07698 408.48103 415.58509 420.4331 427.52516 431.12519 437.97724 445.7293 457.1054 465.0735 468.2295 471.3855 478.33357 485.72563 492.57768 499.6817 502.6217 506.22175 513.1698 520.5619 528.52999 532.13 538.98208 546.73416 558.1102 566.0783 569.2343 576.3384 581.1864 584.3424 591.7345 599.7026 603.3026 608.16268 615.2667 621.2428 628.3468 635.29489 640.1549 647.00698">ensuring safety compliance, and completing research</tspan></text>
<text xml:space="preserve" transform="matrix(.70526507 0 0 .70526507 73.13121 658.2287)" font-size="12" font-family="Gotham"><tspan y="36" x="20.390625 28.358689 33.21872 40.97078 44.1268 51.23085 58.0829 62.93094 68.90698">projects.</tspan></text>
<text xml:space="preserve" transform="matrix(.70526507 0 0 .70526507 230.08496 694.75888)" font-size="12" font-family="Aileron"><tspan y="12" x="0 7.7400505 15.5641 23.66415 33.80421 41.112257 45.79228 52.776319 56.088346 64.33239 69.01241 76.32046 86.46052 90.03654 97.87258 105.97263 109.28466 118.39272 126.14477 129.50478 132.8168 136.82483 140.13686 149.36492 156.45696 163.345 166.92102 173.14907 176.50908 179.8211 188.92917">Sudwerk Brewing Co. - Davis, CA</tspan></text>
<text xml:space="preserve" transform="matrix(.70526507 0 0 .70526507 404.74339 692.0482)" font-size="12" font-family="Aileron"><tspan y="15" x="0 7.7400505 15.048094 23.10014 27.576169 34.884214 45.864286 53.916334 61.224378 65.904399 69.21642 76.89648 84.57653 92.256587 99.93664 103.248668 107.25669 110.56872 118.092769 125.40081 133.45285 138.13288 145.95693 153.04897 157.72899 164.60503 167.91706 175.5971 183.27716 190.95722">September 2015 - February 2018</tspan></text>
<path transform="matrix(.70526507,0,0,.70526507,71.87661,705.7847)" d="M9 11C8.999999 11.265215 8.949252 11.520336 8.847758 11.765364 8.7462639 12.010392 8.601748 12.226675 8.414212 12.414212 8.226675 12.6017479 8.010393 12.746263 7.765365 12.847757 7.5203378 12.949251 7.265216 12.999999 7 13 6.734783 12.999999 6.4796607 12.949251 6.234632 12.847757 5.989604 12.746263 5.773322 12.6017479 5.585786 12.414212 5.398249 12.226675 5.253734 12.010393 5.1522405 11.765365 5.0507466 11.520336 4.9999997 11.265215 5 11 4.9999997 10.734783 5.0507466 10.479661 5.1522405 10.2346329 5.253734 9.989604 5.398249 9.773321 5.585786 9.585786 5.773322 9.398249 5.989604 9.253734 6.234632 9.15224 6.4796607 9.050747 6.734783 9 7 9 7.265216 9 7.5203378 9.050747 7.765365 9.15224 8.010393 9.253734 8.226675 9.398249 8.414212 9.585786 8.601748 9.773321 8.7462639 9.989604 8.847758 10.2346329 8.949252 10.479661 8.999999 10.734783 9 11Z"/>
<text xml:space="preserve" transform="matrix(.70526507 0 0 .70526507 71.87661 705.7847)" font-size="12" font-family="Gotham"><tspan y="15" x="20.390625 28.406678 35.510728 40.370759 44.774797 52.526857 57.386888 68.76297 72.36299 80.331058 85.191089 92.295139 102.62721 105.78323 113.17529 121.14336 124.74338 131.69142 139.08348 147.05155 150.65157 157.50362 164.60767 167.76369 170.91971 177.86775 182.72779 185.8838 193.27587 201.24393 204.84395 212.81201 220.20407 225.05211 228.20813 235.31218 241.28823 244.88825 249.29228 254.15232 261.90437 273.28047 276.8805 281.74055 288.6886 299.0207 302.62074 313.99684 320.9449 325.7929 332.89698 337.75703 340.91304 347.86109 351.0171 354.61714 357.77314 365.1652 370.01325 376.9613 383.78938 390.89344 394.49348 399.3415 406.73356 411.59358 419.34565 426.7377 434.70576 442.0978 445.6978 453.6659 460.61396 467.466 474.29408 481.24214 489.2102 492.3662 499.75828 507.72633 511.32637 521.65847 529.05056 532.20657 535.36257 542.4666 546.06668 557.44277 564.3908 571.78286 578.7309 586.699 589.855 597.2471 605.21517 608.8152 615.76327 619.3633 624.2113 631.31539 638.2634 649.6395 653.23959 658.0876">Perform brewing and cellaring duties from raw material intake through packaging while managing a team to</tspan></text>
<text xml:space="preserve" transform="matrix(.70526507 0 0 .70526507 71.87661 705.7847)" font-size="12" font-family="Gotham"><tspan y="36" x="20.390625 27.494675 34.886735 40.862779 48.254838 53.11487 60.218919 63.81894 68.66698 76.05904 83.00708 87.85512 91.45514 96.30318 103.69524 110.799289 114.39931 122.36737 127.2274 134.97946 142.94753 150.33959 157.19164 162.03968 165.1957 172.94776 180.33982 183.93984 191.9079 195.06392 202.01197 209.40402 213.00405 223.33612 230.28417 236.26021 239.86023 246.96428 253.85233 260.95637 267.8084 275.20048 280.04853 287.1526 295.12068 298.7207 305.82478 312.86885 319.9729 324.83296 331.925 335.52503 345.85713 352.96119 360.06526 366.8933">ensure that the production plan was executed every week.</tspan></text>
<text xml:space="preserve" transform="matrix(.70526507 0 0 .70526507 71.870288 281.17625)" font-size="16" font-family="Aileron" font-weight="bold"><tspan y="17" x="0 13.168017 26.832037 42.272058 55.008085 68.0641 82.75212 95.920139">PROJECTS</tspan></text>
<text xml:space="preserve" transform="matrix(.70526507 0 0 .70526507 77.10516 411.84376)" font-size="12" font-family="Aileron"><tspan y="12" x="0 7.8360435 12.312071 16.788098 24.840146 31.068188 34.428205 38.784238 43.14027 46.82429 50.508314 57.600355 65.7004 72.57644 78.80448 89.78455 96.876598 100.560619 104.24464 107.60465 115.704708 119.28072 123.75675 131.59279 139.41684 147.46889 150.8289 154.40493 162.15697 166.513 177.49308 184.80112 192.10916 196.58519">https://lladysmall.github.io/meet/</tspan></text>
<text xml:space="preserve" transform="matrix(.70526507 0 0 .70526507 77.10516 411.84376)" font-size="12" font-family="Aileron"><tspan y="12" x="200.95313 204.26515 207.57718 210.8892 214.20124 217.51326 220.82529 224.13732 227.44934 230.76137 234.0734 237.38542 240.69745 244.00948 247.3215 250.63353 253.94556 257.25758 260.56959 263.8816 267.1936 270.5056 273.81764">                       </tspan></text>
<text xml:space="preserve" transform="matrix(.70526507 0 0 .70526507 77.10516 411.84376)" font-size="12" font-family="Aileron"><tspan y="12" x="277.14064 284.76069 288.3367 295.22474 302.53279 305.8448 312.93684 320.9889 329.04096 332.40098 335.713 343.54908 348.0251 352.5011 360.55317 366.7812 370.1412 374.49726 378.85328 382.5373 386.2213 393.31336 401.4134 408.28944 414.51747 425.49754 432.58958 436.2736 439.9576 443.31764 451.41767 454.99369 459.46974 467.3058 475.12983 483.1819 486.5419 490.11793 497.86997 502.226 513.20608 520.5141 527.82217 532.29818">Live app: https://lladysmall.github.io/meet/</tspan></text>
<text xml:space="preserve" transform="matrix(.70526507 0 0 .70526507 72.91814 398.5021)" font-size="12" font-family="Aileron" font-weight="bold"><tspan y="12" x="0 11.964068 20.556128 29.148186 37.824247 41.352266 50.40032 58.99238 68.304439 78.12049 86.79655 90.32456 99.63662 108.312679 116.98873 125.436779 130.14081 139.95687 149.26892 157.94498 162.649 173.02907">MEET REACT APPLICATION</tspan></text>
<path transform="matrix(.70526507,0,0,.70526507,72.705799,426.70957)" d="M9 11C8.999999 11.265215 8.949252 11.520336 8.847758 11.765364 8.7462639 12.010392 8.601748 12.226675 8.414212 12.414212 8.226675 12.6017479 8.010393 12.746263 7.765365 12.847757 7.5203378 12.949251 7.265216 12.999999 7 13 6.734783 12.999999 6.4796607 12.949251 6.234632 12.847757 5.989604 12.746263 5.773322 12.6017479 5.585786 12.414212 5.398249 12.226675 5.253734 12.010393 5.1522405 11.765365 5.0507466 11.520336 4.9999997 11.265215 5 11 4.9999997 10.734783 5.0507466 10.479661 5.1522405 10.2346329 5.253734 9.989604 5.398249 9.773321 5.585786 9.585786 5.773322 9.398249 5.989604 9.253734 6.234632 9.15224 6.4796607 9.050747 6.734783 9 7 9 7.265216 9 7.5203378 9.050747 7.765365 9.15224 8.010393 9.253734 8.226675 9.398249 8.414212 9.585786 8.601748 9.773321 8.7462639 9.989604 8.847758 10.2346329 8.949252 10.479661 8.999999 10.734783 9 11Z"/>
<text xml:space="preserve" transform="matrix(.70526507 0 0 .70526507 72.705799 426.70957)" font-size="12" font-family="Gotham"><tspan y="15" x="20.390625 29.870697 33.47072 39.446763 46.55081 51.410844 58.454896 65.558948 70.418979 73.575 80.67905 86.65509 92.631137 95.57115 99.17117 107.13924 111.99927 119.75133 127.71939 132.57942 139.68347 145.65952 151.63556 154.79158 161.83563 168.93968 172.5397 182.87178 189.97583 197.9439 201.54392 208.49196 216.46002 224.42809 227.5841 230.74013 237.59218 244.54022 249.38826 252.54428 260.29634 267.6884 271.2884 279.25645 286.6485 289.80455 292.96055 297.80857 301.4086 308.80067 314.7767 317.9327 325.32478 333.29283 336.89286 343.8409 347.44096 352.28898 359.39305 365.36909 370.21714 375.1132 383.08128 387.9413 391.09733 398.1414 405.24546 412.6375 416.23753 424.2056 431.30967 438.35374 445.4578 448.6138 456.36589 464.33396 475.71006 482.81413 490.20619 495.05424 498.65428 503.5023 510.60636 517.4584 524.85049 532.24258 535.39859 543.36666 550.75869 557.86276">A serverless, progressive web application built using a test-driven development technique.</tspan></text>
<path transform="matrix(.70526507,0,0,.70526507,72.705799,426.70957)" d="M9 32C8.999999 32.265218 8.949252 32.520338 8.847758 32.765367 8.7462639 33.01039 8.601748 33.226675 8.414212 33.41421 8.226675 33.601747 8.010393 33.746259 7.765365 33.84775 7.5203378 33.94925 7.265216 33.999998 7 34 6.734783 33.999998 6.4796607 33.94925 6.234632 33.847757 5.989604 33.746259 5.773322 33.601747 5.585786 33.41421 5.398249 33.226675 5.253734 33.01039 5.1522405 32.76536 5.0507466 32.520338 4.9999997 32.265218 5 32 4.9999997 31.734782 5.0507466 31.479659 5.1522405 31.23463 5.253734 30.989603 5.398249 30.773322 5.585786 30.585785 5.773322 30.398247 5.989604 30.25373 6.234632 30.152237 6.4796607 30.050745 6.734783 30 7 30 7.265216 30 7.5203378 30.050745 7.765365 30.152237 8.010393 30.25373 8.226675 30.398247 8.414212 30.585785 8.601748 30.773322 8.7462639 30.989603 8.847758 31.23463 8.949252 31.479659 8.999999 31.734782 9 32Z"/>
<text xml:space="preserve" transform="matrix(.70526507 0 0 .70526507 72.705799 426.70957)" font-size="12" font-family="Gotham"><tspan y="36" x="20.390625 28.26268 35.36673 40.214769 47.06682 54.458879 61.562929 67.53897 71.13899 78.087039 85.479099 93.44716 97.04718 105.01524 108.171268 114.14731 122.11537 125.27139 132.21944 139.3115 145.28754 148.88756 156.85562 163.80367 168.6517 175.59975 179.19977 186.14781 193.53987 201.50794 205.10796 212.212 219.25606 226.3601 233.75217 238.6002 244.57625 248.17627 252.5803 257.44035 265.19239 276.56849 280.16853 285.01655 292.4086 299.51264 303.11268 312.52076 320.27284 328.0249 335.99299 339.149 346.25306 349.8531 358.75715 365.7052 368.8612 375.96528 383.35734 391.32539 398.27345 403.13349 406.73353 416.2136 424.22966 427.72169 431.32173 438.26979 445.66184 453.62989 457.22993 465.198 468.354 474.33006 482.2981 485.4541 492.40217 499.4942 505.47026 509.07026 515.9223 523.31436 530.2623 535.1224 539.9704 545.9465 549.5465 556.93856 562.9146 566.0706 573.4627 581.4308 585.0308 593.70687 600.8109 607.66299 615.055 622.00308 626.8631 631.7111 637.6872">Fetches and displays data and events from the Google Calendar API and displays charts using Recharts.</tspan></text>
<path transform="matrix(.70526507,0,0,.70526507,72.705799,426.70957)" d="M9 53C8.999999 53.265214 8.949252 53.520334 8.847758 53.765359 8.7462639 54.010389 8.601748 54.22667 8.414212 54.414209 8.226675 54.60174 8.010393 54.746259 7.765365 54.84775 7.5203378 54.949247 7.265216 54.999998 7 55 6.734783 54.999998 6.4796607 54.949247 6.234632 54.84775 5.989604 54.746259 5.773322 54.60174 5.585786 54.414209 5.398249 54.22667 5.253734 54.010389 5.1522405 53.765359 5.0507466 53.520334 4.9999997 53.265214 5 53 4.9999997 52.73478 5.0507466 52.479658 5.1522405 52.234628 5.253734 51.989599 5.398249 51.77332 5.585786 51.585786 5.773322 51.398248 5.989604 51.25373 6.234632 51.152238 6.4796607 51.050748 6.734783 51 7 51 7.265216 51 7.5203378 51.050748 7.765365 51.152238 8.010393 51.25373 8.226675 51.398248 8.414212 51.585786 8.601748 51.77332 8.7462639 51.989599 8.847758 52.234628 8.949252 52.479658 8.999999 52.73478 9 53Z"/>
<text xml:space="preserve" transform="matrix(.70526507 0 0 .70526507 72.705799 426.70957)" font-size="12" font-family="Gotham"><tspan y="57" x="20.390625 29.498688 35.47473 42.57878 48.554826 52.154848 61.63492 74.91901 82.59906 86.19908 90.60312 98.35518 103.21521 106.81523 111.66327 119.05533 126.15938 129.7594 136.70745 144.0995 148.94754 156.3396 164.09166 168.95169 172.10771 178.77976 185.7278 190.57584 193.73186 201.48392 208.87598 212.476 218.45204 225.55609 230.41613 237.46018 244.56423 249.42426 253.02428 259.97233 267.36439 275.33247 278.9325 286.32456 292.3006 299.40464 305.38069 308.98069 319.18077 328.66084 336.0529 340.9009 348.29298 351.89299 359.08103 362.68107 369.62913 377.02119 381.86924 389.2613 396.36534 403.7574 408.60545 411.76145 418.6135 425.56156 430.40959 433.56559 441.31767 448.70973">Uses AWS for the authorization server and uses OAuth 2 authentication.</tspan></text>
<text xml:space="preserve" transform="matrix(.70526507 0 0 .70526507 75.696887 317.24229)" font-size="12" font-family="Aileron"><tspan y="12" x="0 7.8360435 12.312071 16.788098 24.840146 31.068188 34.428205 38.784238 43.14027 51.240324 54.81634 59.29237 67.12841 74.95246 83.00451 86.364528 93.43256 101.18461 112.16468 116.52071 120.204738 123.888759 130.98079 139.08084 145.95688 152.18492 163.165 170.25704 173.94106 177.62508 181.98111 192.96118 200.71323 207.60128 211.17729 218.48534 222.49337 229.5614 233.24542 236.82144 244.12949 251.96553">https://github.com/lladysmall/movie-client</tspan></text>
<text xml:space="preserve" transform="matrix(.70526507 0 0 .70526507 75.696887 317.24229)" font-size="12" font-family="Aileron"><tspan y="12" x="256.45314 259.76515 263.07716">   </tspan></text>
<text xml:space="preserve" transform="matrix(.70526507 0 0 .70526507 75.696887 317.24229)" font-size="12" font-family="Aileron"><tspan y="12" x="266.39064 269.70265 273.01466">   </tspan></text>
<text xml:space="preserve" transform="matrix(.70526507 0 0 .70526507 75.696887 317.24229)" font-size="12" font-family="Aileron"><tspan y="12" x="276.32814 283.94819 287.5242 294.41224 301.72029 305.0323 312.12434 320.1764 328.22846 331.58848">Live app: </tspan></text>
<text xml:space="preserve" transform="matrix(.70526507 0 0 .70526507 75.696887 317.24229)" font-size="12" font-family="Aileron"><tspan y="12" x="334.90626 342.74229 347.2183 351.6943 359.74635 365.97438 369.33439 373.69044 378.04646 386.0985 393.85057 401.9026 409.65464 417.70668 425.4587 429.14274 432.71876 438.94679 442.3068 450.14283 457.45088 461.92689 465.6109 469.18693 473.38697 480.263 483.62303 490.71507 498.7671 506.81916">https://popopolis.netlify.app/</tspan></text>
<text xml:space="preserve" transform="matrix(.70526507 0 0 .70526507 75.696887 317.24229)" font-size="12" font-family="Aileron"><tspan y="12" x="511.1875 522.16757 529.91958 536.8076 540.3836 547.69168 551.6997 558.76779 562.4518 566.02786 573.3359 581.17196">movie-client</tspan></text>
<text xml:space="preserve" transform="matrix(.70526507 0 0 .70526507 72.705799 303.71736)" font-size="12" font-family="Aileron" font-weight="bold"><tspan y="12" x="0 9.816058 18.86411 28.488167 38.46023 41.98825 53.95232 64.33239 73.788448 78.49247 87.084529 90.61254 99.9246 108.600658 117.27671 125.724758 130.42879 140.24485 149.5569 158.23296 162.93698 173.31705">CRUD MOVIE APPLICATION</tspan></text>
<text xml:space="preserve" transform="matrix(.70526507 0 0 .70526507 72.705799 303.71736)" font-size="12" font-family="Aileron" font-weight="bold"><tspan y="12" x="183.64063"> </tspan></text>
<path transform="matrix(.70526507,0,0,.70526507,72.705799,332.0182)" d="M9 11C8.999999 11.265215 8.949252 11.520336 8.847758 11.765364 8.7462639 12.010392 8.601748 12.226675 8.414212 12.414212 8.226675 12.6017479 8.010393 12.746263 7.765365 12.847757 7.5203378 12.949251 7.265216 12.999999 7 13 6.734783 12.999999 6.4796607 12.949251 6.234632 12.847757 5.989604 12.746263 5.773322 12.6017479 5.585786 12.414212 5.398249 12.226675 5.253734 12.010393 5.1522405 11.765365 5.0507466 11.520336 4.9999997 11.265215 5 11 4.9999997 10.734783 5.0507466 10.479661 5.1522405 10.2346329 5.253734 9.989604 5.398249 9.773321 5.585786 9.585786 5.773322 9.398249 5.989604 9.253734 6.234632 9.15224 6.4796607 9.050747 6.734783 9 7 9 7.265216 9 7.5203378 9.050747 7.765365 9.15224 8.010393 9.253734 8.226675 9.398249 8.414212 9.585786 8.601748 9.773321 8.7462639 9.989604 8.847758 10.2346329 8.949252 10.479661 8.999999 10.734783 9 11Z"/>
<text xml:space="preserve" transform="matrix(.70526507 0 0 .70526507 72.705799 332.0182)" font-size="12" font-family="Gotham"><tspan y="15" x="20.390625 28.070679 31.2267 38.61876 46.586824 49.742845 56.846895 61.742937 69.711 76.65904 84.627109 91.731159 94.67117 98.271198 103.131229 110.235279 116.21132 124.17938 131.93144 139.3235 145.29955 148.45557 155.49962 162.60367 166.20369 173.15174 181.1198 189.08786 192.68788 203.01996 206.17598 211.02402 218.41608 222.0161 226.87613 234.62819 242.02025 246.86829 250.0243 257.41639 265.38447 268.32447 271.9245 277.90055 285.0046 292.04869 299.15275 304.0128 310.96086 314.11686 317.7169 320.8729 328.26496 333.113 340.21708 345.07713 349.48118 356.42924 363.28129 370.38536 373.98539 381.02946 384.18547 391.28953 401.6216 407.59767 410.5377 414.13774 421.0858 428.47785 436.4459 440.04594 446.994 450.59403 458.5621 466.31419 469.47019 472.6262 478.60224 485.9943 493.09837 501.06645 504.66648 512.05856 518.03457 525.1386 529.99868 533.5987 540.70278 547.5908 555.5589 562.66299 567.523 570.679 577.7831 585.1752 592.0272 599.1313">Single-page, responsive app with routing, several interface views, and a polished user experience.</tspan></text>
<path transform="matrix(.70526507,0,0,.70526507,72.705799,332.0182)" d="M9 32C8.999999 32.265218 8.949252 32.520338 8.847758 32.765367 8.7462639 33.01039 8.601748 33.226675 8.414212 33.41421 8.226675 33.601747 8.010393 33.746259 7.765365 33.84775 7.5203378 33.94925 7.265216 33.999998 7 34 6.734783 33.999998 6.4796607 33.94925 6.234632 33.847757 5.989604 33.746259 5.773322 33.601747 5.585786 33.41421 5.398249 33.226675 5.253734 33.01039 5.1522405 32.76536 5.0507466 32.520338 4.9999997 32.265218 5 32 4.9999997 31.734782 5.0507466 31.479659 5.1522405 31.23463 5.253734 30.989603 5.398249 30.773322 5.585786 30.585785 5.773322 30.398247 5.989604 30.25373 6.234632 30.152237 6.4796607 30.050745 6.734783 30 7 30 7.265216 30 7.5203378 30.050745 7.765365 30.152237 8.010393 30.25373 8.226675 30.398247 8.414212 30.585785 8.601748 30.773322 8.7462639 30.989603 8.847758 31.23463 8.949252 31.479659 8.999999 31.734782 9 32Z"/>
<text xml:space="preserve" transform="matrix(.70526507 0 0 .70526507 72.705799 332.0182)" font-size="12" font-family="Gotham"><tspan y="36" x="20.390625 29.294693 32.450716 35.606737 42.710786 50.102846 54.950883 59.846925 65.82297 68.97899 76.94705 84.0511 87.65112 95.61919 103.011249 106.16727 109.32329 114.171329 117.77135 128.10343 131.25945 136.10749 143.49954 147.09957 155.77562 162.87967 169.82772 176.67977 181.5278 185.12783 192.07587 199.46793 207.43599 211.03601 219.70008 227.45214 235.2042 240.05223 246.02828 250.87631 255.73635 262.6844 270.65248 274.2525 281.20054 287.17658 290.77659 301.10868 308.21275 311.36875 314.52476 318.1248 325.07286 331.0489 334.6489 343.32496 350.429 357.37705 364.2291 369.07713 373.97319 382.64924 390.40129 397.79335 402.6414 409.74546 414.6055 418.20555 425.1536 432.54566 440.5137 444.11375 452.1298 459.07786 463.9379 470.78996 477.894 481.05003">Client-side built with React and Bootstrap as well as React-Router and Parcel,</tspan></text>
<text xml:space="preserve" transform="matrix(.70526507 0 0 .70526507 72.705799 332.0182)" font-size="12" font-family="Gotham"><tspan y="36" x="484 487.60005">  </tspan></text>
<text xml:space="preserve" transform="matrix(.70526507 0 0 .70526507 72.705799 332.0182)" font-size="12" font-family="Gotham"><tspan y="36" x="491.20314 494.69514 499.54316 503.1432 506.2992 512.27529 515.8753 523.26736 531.0194 536.9955 541.8435 548.9476 556.91567 560.5157 568.26779 575.6598 579.2598 588.73989 595.84396 600.69198 603.84799 607.00399 611.408 618.50009">It is hosted on Netlify.</tspan></text>
<path transform="matrix(.70526507,0,0,.70526507,72.705799,332.0182)" d="M9 53C8.999999 53.265214 8.949252 53.520334 8.847758 53.765359 8.7462639 54.010389 8.601748 54.22667 8.414212 54.414209 8.226675 54.60174 8.010393 54.746259 7.765365 54.84775 7.5203378 54.949247 7.265216 54.999998 7 55 6.734783 54.999998 6.4796607 54.949247 6.234632 54.84775 5.989604 54.746259 5.773322 54.60174 5.585786 54.414209 5.398249 54.22667 5.253734 54.010389 5.1522405 53.765359 5.0507466 53.520334 4.9999997 53.265214 5 53 4.9999997 52.73478 5.0507466 52.479658 5.1522405 52.234628 5.253734 51.989599 5.398249 51.77332 5.585786 51.585786 5.773322 51.398248 5.989604 51.25373 6.234632 51.152238 6.4796607 51.050748 6.734783 51 7 51 7.265216 51 7.5203378 51.050748 7.765365 51.152238 8.010393 51.25373 8.226675 51.398248 8.414212 51.585786 8.601748 51.77332 8.7462639 51.989599 8.847758 52.234628 8.949252 52.479658 8.999999 52.73478 9 53Z"/>
<text xml:space="preserve" transform="matrix(.70526507 0 0 .70526507 72.705799 332.0182)" font-size="12" font-family="Gotham"><tspan y="57" x="20.390625 28.082673 35.47473 42.57878 46.178804 52.154848 59.258897 64.11893 71.16298 78.26703 83.12706 88.0231 93.999149 97.15517 105.12323 112.22728 115.8273 118.98332 124.959369 128.55939 135.50743 139.10746 147.78351 155.82357 163.50362 171.19567 174.79569 184.27576 192.29181 195.78383 199.38385 207.35192 214.74398 217.9 221.05602 225.90406 229.50408 239.83615 242.99217 247.84021 255.23227 258.83229 268.31236 276.0644 284.03245 291.1365 294.06455 297.22056 303.1966 306.13664 309.73667 317.7767 324.66477 332.63285 337.4929 344.59696 350.573 356.54905 360.14909 367.09715 374.4892 382.45726 386.05729 396.47337 404.22544 411.6175 419.58555 427.33763 436.72169 445.38575">The server-side is a REST API built with Node.js, Express and MongoDB.</tspan></text>
<text xml:space="preserve" transform="matrix(.70526507 0 0 .70526507 72.705799 332.0182)" font-size="12" font-family="Gotham"><tspan y="57" x="448.32814 451.92817">  </tspan></text>
<text xml:space="preserve" transform="matrix(.70526507 0 0 .70526507 72.705799 332.0182)" font-size="12" font-family="Gotham"><tspan y="57" x="455.53126 465.01133 473.02738 476.5194 480.11946 487.2235 494.61558 502.58363 510.5517 518.3038 521.4598 528.8518 533.6998 539.6759 543.27597 553.60806 560.7121 565.57217 572.6762 576.27627 581.12429 588.22836 594.20437 599.05239 606.15646 614.1245 617.72457 628.05667 631.21267 636.06069">API endpoints were tested with</tspan></text>
<text xml:space="preserve" transform="matrix(.70526507 0 0 .70526507 72.705799 332.0182)" font-size="12" font-family="Gotham"><tspan y="78" x="20.390625 28.406678 36.158739 42.13478 46.98282 58.358903 65.306949 72.699008 76.29903 83.24707 90.63913 98.60719 102.207218 107.05525 114.44731 121.55136 125.15138 134.63146 142.6475 146.13953 149.73955 152.89557 158.87162 162.47164 170.4397 177.54375 185.51181 188.66783 196.41989 203.51195 210.616 218.58406 222.18408 229.93614 237.3282 240.92823 250.0483 257.15235 262.0124 269.76448 276.5925 283.98457">Postman and the API is deployed on Heroku.</tspan></text>
<text xml:space="preserve" transform="matrix(.70526507 0 0 .70526507 72.705799 332.0182)" font-size="12" font-family="Gotham"><tspan y="78" x="286.92189 290.5219">  </tspan></text>
<text xml:space="preserve" transform="matrix(.70526507 0 0 .70526507 72.705799 332.0182)" font-size="12" font-family="Gotham"><tspan y="78" x="294.125 303.23307 308.08113 311.23713 314.39314 317.54914 324.2212 331.32527 337.3013 340.9013 347.53736 360.82145 368.5135 372.11354 379.06159 386.45365 391.3017 398.69377 405.7978 413.18986 418.0379 421.1939 428.04597 434.99403 439.84205 442.99806 450.75013 458.14219">Utilizes JWT authentication.</tspan></text>
<text xml:space="preserve" transform="matrix(.70555558 0 0 .70555558 296.55683 164.37845)" font-size="16" font-family="Aileron" font-weight="bold"><tspan y="17" x="0 12.928027 27.056052 34.928064 47.79208 60.656099">SKILLS</tspan></text>
<text xml:space="preserve" transform="matrix(.70555558 0 0 .70555558 296.55628 184.93857)" font-size="12" font-family="Gotham"><tspan y="16" x="0"> </tspan></text>
<text xml:space="preserve" transform="matrix(.70555558 0 0 .70555558 296.55628 184.93857)" font-size="12" font-family="Gotham"><tspan y="16" x="3.609375 11.109421 14.709442 21.34549 28.293534 35.337587 42.28563 49.965684 56.817735 61.677766 64.833789 72.80185">&#x003e; JavaScript</tspan></text>
<text xml:space="preserve" transform="matrix(.70555558 0 0 .70555558 296.55628 184.93857)" font-size="12" font-family="Gotham"><tspan y="39" x="0"> </tspan></text>
<text xml:space="preserve" transform="matrix(.70555558 0 0 .70555558 296.55628 184.93857)" font-size="12" font-family="Gotham"><tspan y="39" x="3.609375 11.109421 14.709442 23.829514 31.52156 41.937639">&#x003e; HTML</tspan></text>
<text xml:space="preserve" transform="matrix(.70555558 0 0 .70555558 296.55628 184.93857)" font-size="12" font-family="Gotham"><tspan y="62" x="0"> </tspan></text>
<text xml:space="preserve" transform="matrix(.70555558 0 0 .70555558 296.55628 184.93857)" font-size="12" font-family="Gotham"><tspan y="62" x="3.609375 11.109421 14.709442 23.61351 31.293564">&#x003e; CSS</tspan></text>
<text xml:space="preserve" transform="matrix(.70555558 0 0 .70555558 296.55628 184.93857)" font-size="12" font-family="Gotham"><tspan y="85" x="0"> </tspan></text>
<text xml:space="preserve" transform="matrix(.70555558 0 0 .70555558 296.55628 184.93857)" font-size="12" font-family="Gotham"><tspan y="85" x="3.609375 11.109421 14.709442 23.385499 30.489548 37.43759 44.289644">&#x003e; React</tspan></text>
<text xml:space="preserve" transform="matrix(.70555558 0 0 .70555558 296.55628 184.93857)" font-size="12" font-family="Gotham"><tspan y="108" x="0"> </tspan></text>
<text xml:space="preserve" transform="matrix(.70555558 0 0 .70555558 296.55628 184.93857)" font-size="12" font-family="Gotham"><tspan y="108" x="3.609375 11.109421 14.709442 23.373505 31.125565 38.877626 43.725664 49.701707 54.549745 59.409776 66.35782">&#x003e; Bootstrap</tspan></text>
<text xml:space="preserve" transform="matrix(.70555558 0 0 .70555558 374.94898 184.93857)" font-size="12" font-family="Gotham" font-weight="bold"><tspan y="16" x="0"> </tspan></text>
<text xml:space="preserve" transform="matrix(.70555558 0 0 .70555558 374.94898 184.93857)" font-size="12" font-family="Gotham"><tspan y="16" x="3.609375 11.109421 14.709442 24.189515 31.941575 39.909639 47.013689 49.94171 53.097734">&#x003e; Node.js</tspan></text>
<text xml:space="preserve" transform="matrix(.70555558 0 0 .70555558 374.94898 184.93857)" font-size="12" font-family="Gotham"><tspan y="39" x="0"> </tspan></text>
<text xml:space="preserve" transform="matrix(.70555558 0 0 .70555558 374.94898 184.93857)" font-size="12" font-family="Gotham"><tspan y="39" x="3.609375 11.109421 14.709442 25.125519 32.87758 40.269639 48.2377 55.98976 65.373828">&#x003e; MongoDB</tspan></text>
<text xml:space="preserve" transform="matrix(.70555558 0 0 .70555558 374.94898 184.93857)" font-size="12" font-family="Gotham"><tspan y="62" x="0"> </tspan></text>
<text xml:space="preserve" transform="matrix(.70555558 0 0 .70555558 374.94898 184.93857)" font-size="12" font-family="Gotham"><tspan y="62" x="3.609375 11.109421 14.709442 21.34549 29.025544 39.225618">&#x003e; JSON</tspan></text>
<text xml:space="preserve" transform="matrix(.70555558 0 0 .70555558 374.94898 184.93857)" font-size="12" font-family="Gotham"><tspan y="85" x="0"> </tspan></text>
<text xml:space="preserve" transform="matrix(.70555558 0 0 .70555558 374.94898 184.93857)" font-size="12" font-family="Gotham"><tspan y="85" x="3.609375 11.109421 14.709442 23.385499 31.425553 39.105607 46.797655 51.20169 58.59375 61.74977 65.34979 74.829868 82.84592 86.33794">&#x003e; RESTful APIs</tspan></text>
<text xml:space="preserve" transform="matrix(.70555558 0 0 .70555558 374.94898 184.93857)" font-size="12" font-family="Gotham"><tspan y="108" x="0"> </tspan></text>
<text xml:space="preserve" transform="matrix(.70555558 0 0 .70555558 374.94898 184.93857)" font-size="12" font-family="Gotham"><tspan y="108" x="3.609375 11.109421 14.709442 22.40149 31.785553 41.169618 44.769639 53.121706 56.721727 65.38579 74.76985">&#x003e; TDD &#x0026; BDD</tspan></text>
<text xml:space="preserve" transform="matrix(.70555558 0 0 .70555558 468.32789 184.93857)" font-size="12" font-family="Gotham"><tspan y="16" x="0"> </tspan></text>
<text xml:space="preserve" transform="matrix(.70555558 0 0 .70555558 468.32789 184.93857)" font-size="12" font-family="Gotham"><tspan y="16" x="3.609375 11.109421 14.709442 24.117508 27.27353 32.121568 41.24164 48.633699">&#x003e; GitHub</tspan></text>
<text xml:space="preserve" transform="matrix(.70555558 0 0 .70555558 468.32789 184.93857)" font-size="12" font-family="Gotham"><tspan y="39" x="0"> </tspan></text>
<text xml:space="preserve" transform="matrix(.70555558 0 0 .70555558 468.32789 184.93857)" font-size="12" font-family="Gotham"><tspan y="39" x="3.609375 11.109421 14.709442 22.725495 30.477555 36.453599 41.301637 52.67772 59.625764">&#x003e; Postman</tspan></text>
<text xml:space="preserve" transform="matrix(.70555558 0 0 .70555558 468.32789 184.93857)" font-size="12" font-family="Gotham"><tspan y="62" x="0"> </tspan></text>
<text xml:space="preserve" transform="matrix(.70555558 0 0 .70555558 468.32789 184.93857)" font-size="12" font-family="Gotham"><tspan y="62" x="3.609375 11.109421 14.709442 23.709504 31.389557 34.98958 43.893648 51.645708 59.61377">&#x003e; VS Code</tspan></text>
<text xml:space="preserve" transform="matrix(.70555558 0 0 .70555558 468.32789 184.93857)" font-size="12" font-family="Gotham"><tspan y="85" x="0"> </tspan></text>
<text xml:space="preserve" transform="matrix(.70555558 0 0 .70555558 468.32789 184.93857)" font-size="12" font-family="Gotham"><tspan y="85" x="3.609375 11.109421 14.709442 22.389496 25.545517 32.49356 39.34561">&#x003e; Slack</tspan></text>
<text xml:space="preserve" transform="matrix(.70555558 0 0 .70555558 76.053638 484.1004)" font-size="16" font-family="Aileron" font-weight="bold"><tspan y="17" x="0 13.056018 27.952048 42.38407 57.072095 71.08812 84.256137 92.12814 107.56816">EDUCATION</tspan></text>
<text xml:space="preserve" transform="matrix(.70555558 0 0 .70555558 431.6083 505.89707)" font-size="12" font-family="Aileron"><tspan y="12" x="0 7.248046 15.072096 22.908139 30.216183 33.52821 41.208265 48.888319 56.56837 64.24842 67.56045 71.568477 74.8805 82.40455 89.71259 97.76464 102.444667 110.268718 117.360759 122.04078 128.91681 132.22884 139.90889 147.58895 155.269">June 2023 - February 2024</tspan></text>
<text xml:space="preserve" transform="matrix(.70555558 0 0 .70555558 76.053638 505.89707)" font-size="12" font-family="Aileron" font-weight="bold"><tspan y="12" x="0 9.816058 19.128119 28.17617 36.76823 45.36029 54.408346 57.936365 66.2524 76.63247 86.25652 96.57659 106.54865 115.5967">CAREER FOUNDRY</tspan></text>
<path transform="matrix(.70555558,0,0,.70555558,73.95795,521.1627)" d="M9 8C8.999999 8.265216 8.949252 8.520338 8.847758 8.765367 8.7462639 9.010394 8.601748 9.226676 8.414212 9.414213 8.226675 9.601748 8.010393 9.7462639 7.765365 9.847757 7.5203378 9.949252 7.265216 9.999999 7 10 6.734783 9.999999 6.4796607 9.949252 6.234632 9.847757 5.989604 9.7462639 5.773322 9.601748 5.585786 9.414213 5.398249 9.226676 5.253734 9.010394 5.1522405 8.765367 5.0507466 8.520338 4.9999997 8.265216 5 8 4.9999997 7.734783 5.0507466 7.4796607 5.1522405 7.234632 5.253734 6.989604 5.398249 6.7733218 5.585786 6.585786 5.773322 6.398249 5.989604 6.253734 6.234632 6.1522405 6.4796607 6.050747 6.734783 6 7 6 7.265216 6 7.5203378 6.050747 7.765365 6.1522405 8.010393 6.253734 8.226675 6.398249 8.414212 6.585786 8.601748 6.7733218 8.7462639 6.989604 8.847758 7.234632 8.949252 7.4796607 8.999999 7.734783 9 8Z"/>
<text xml:space="preserve" transform="matrix(.70555558 0 0 .70555558 73.95795 521.1627)" font-size="12" font-family="Gotham"><tspan y="12" x="20.390625 30.014695 38.486757 50.58284 59.270906 64.85094 72.67499 80.78705 88.6111 96.72316 103.419208 107.29523 115.05928 122.88333 127.203357 135.67542 143.78748 147.6635 151.53952 159.65158 167.47563 171.79566 177.3637 182.94373 190.61177 194.4878 202.59986 206.47588 214.58794 223.276 227.59603 236.28409 241.86412 250.33618 259.02424 264.60426 272.27229 284.36836 288.68836 296.5124 308.60847 317.2965 325.40858 333.0766 339.77265 343.64866 351.04069 354.9167 363.02876 371.7168 376.0368 381.60484 389.7169 397.54093 401.86094 412.997 421.75706 431.1531 441.35319 445.6732 451.2412 459.06526 466.6373 474.74937 479.06938 485.7654 491.33345 499.00148 506.57353 514.1216 517.7816 522.1016 527.22567 535.0497 542.7177 548.28579 556.3978 561.97787 565.8539 573.96597 582.654 586.974 590.85006 598.9621 604.53018 612.3542 620.46627 627.1623 631.0383 638.80239">Comprehensive online training program emphasizing the MERN tech stack, featuring intensive</tspan></text>
<text xml:space="preserve" transform="matrix(.70555558 0 0 .70555558 73.95795 521.1627)" font-size="12" font-family="Gotham"><tspan y="28" x="20.390625 29.07869 34.658723 43.130784 47.006807 54.830858 62.40291 67.97095 73.58699 82.275058 89.9431 96.639148 104.463199 113.15126 117.47128 121.347309 129.17136 136.8394 142.41944 150.5315 154.40752 162.51958 171.20764 175.52767 183.19571 191.30777 199.99584 204.31586 212.13991 219.74796 228.43602 232.31204 240.7841 246.36414 254.03218 259.60023 263.47627 271.9483 280.06037 284.38038 292.85243 297.97645 302.29646 310.9845 316.5645 325.03657 337.13264 341.00865 349.1207 356.94474 365.0568 370.62483 374.94483 378.82084 382.69685 391.3849 396.9649 404.63294 410.21296 414.08897 421.913 428.60905 432.92906 440.59709 448.70915 457.3972 461.7172 466.84123 472.42124 480.08927 492.18534 500.00938 511.06144 519.53347 525.11349 532.6615 539.35757">project-based learning and exploration of prominent libraries and frameworks.</tspan></text>
<text xml:space="preserve" transform="matrix(.70555558 0 0 .70555558 228.98259 505.89707)" font-size="12" font-family="Aileron"><tspan y="12" x="0 7.524047 15.348097 19.032116 22.716135 26.72416 34.46421 38.94024 46.03228 53.10032 60.08436 63.396387 75.540477 82.84852 90.900569 94.21259 103.44065 110.748699 117.63674 124.944789 128.6288 136.38085 144.43289 155.41297 162.72101 170.55706 175.03308 178.34511 187.45317 194.76122 199.44124 203.91727 207.49329 211.69332 215.26934 222.33737 229.42942 233.90544">Full-Stack Web Development Certificate</tspan></text>
<text xml:space="preserve" transform="matrix(.70555558 0 0 .70555558 423.9244 551.3366)" font-size="12" font-family="Aileron"><tspan y="12" x="0 7.7400505 15.048094 23.10014 27.576169 34.884214 45.864286 53.916334 61.224378 65.904399 69.21642 76.89648 84.57653 92.256587 99.93664 103.248668 107.25669 110.56872 117.816768 125.640819 133.47686 140.7849 144.09693 151.77698 159.45703 167.13709">September 2013 - June 2018</tspan></text>
<text xml:space="preserve" transform="matrix(.70555558 0 0 .70555558 76.053638 551.0472)" font-size="12" font-family="Aileron" font-weight="bold"><tspan y="12" x="0 9.624057 19.944128 24.648156 34.104215 42.696275 51.744329 60.24038 64.944408 73.62046 82.33251 85.86053 96.24059 104.55663 108.08465 117.9007 127.21276 135.66082 140.36484 148.68088 159.06095 168.109 178.42906 183.13309 192.44515 196.58516 200.11318 210.08524 219.3973 228.85335 233.55738">UNIVERSITY OF CALIFORNIA, DAVIS</tspan></text>
<text xml:space="preserve" transform="matrix(.70555558 0 0 .70555558 263.47285 551.3366)" font-size="12" font-family="Aileron"><tspan y="12" x="0 8.244048 11.604063 19.344113 22.704127 26.016152 33.5402 41.292245 49.04429 57.14434 60.456369 68.19642 75.26446 78.84048 86.14852 93.984569 101.052608 108.36065 111.672679 120.24073 123.55276 131.6168 138.92485 145.99289 153.82894 161.66498 169.41703 173.10105 180.85309 188.95314">B.S. Food Science &#x0026; Technology</tspan></text>
</g>
</svg>
